# xmcd CD database file
#
# Track frame offsets:
#	182
#	13090
#	25960
#	37407
#	50682
#	62980
#	76480
#	90125
#	102165
#	115057
#	126795
#	141740
#	154435
#	166417
#	179510
#	192362
#
# Disc length: 2743 seconds
#
# Revision: 1
# Processed by: cddbd v1.5.2PL0 Copyright (c) Steve Scherf et al.
# Submitted via: CDex 1.81
#
DISCID=e70ab510
DTITLE=Various Artist - Beat of the 60's CD1
DYEAR=1900
DGENRE=Blues
TTITLE0=Archies
TTITLE1=Hold Tight
TTITLE2=Baby Come Back
TTITLE3=My Little Lady
TTITLE4=Needles and Pins
TTITLE5=Heep on running
TTITLE6=Viva bobby Joe
TTITLE7=Troggs
TTITLE8=Gimme Some Lovin
TTITLE9=Nashville Cats
TTITLE10=Mick and Tich
TTITLE11=Hello Buddy
TTITLE12=Bang Shang  a Lang
TTITLE13=With a girl like you
TTITLE14=Spichs and Spechs
TTITLE15=Baby now that I've found you
EXTD=
EXTT0=
EXTT1=
EXTT2=
EXTT3=
EXTT4=
EXTT5=
EXTT6=
EXTT7=
EXTT8=
EXTT9=
EXTT10=
EXTT11=
EXTT12=
EXTT13=
EXTT14=
EXTT15=
PLAYORDER=
